<?xml version="1.0" standalone="no"?>
<!DOCTYPE svg PUBLIC "-//W3C//DTD SVG 20010904//EN"
 "http://www.w3.org/TR/2001/REC-SVG-20010904/DTD/svg10.dtd">
<svg version="1.0" xmlns="http://www.w3.org/2000/svg"
 width="1200.000000pt" height="1200.000000pt" viewBox="0 0 1200.000000 1200.000000"
 preserveAspectRatio="xMidYMid meet">
<metadata>
Created by potrace 1.14, written by Peter Selinger 2001-2017
</metadata>
<g transform="translate(0.000000,1200.000000) scale(0.100000,-0.100000)"
fill="#000000" stroke="none">
<path d="M6385 9842 c-64 -26 -79 -46 -134 -192 -22 -58 -61 -159 -86 -225
-25 -66 -49 -129 -54 -140 -9 -21 -41 -107 -110 -290 -23 -60 -48 -126 -56
-145 -8 -19 -67 -172 -130 -340 -63 -168 -120 -314 -125 -325 -5 -11 -21 -51
-35 -90 -14 -38 -42 -113 -61 -165 -19 -52 -41 -108 -48 -125 -7 -16 -29 -73
-49 -125 -19 -52 -50 -133 -67 -180 -43 -115 -35 -177 30 -237 85 -78 232 -43
278 65 26 62 116 296 117 302 0 5 17 48 40 105 7 17 29 73 49 125 19 52 56
149 81 215 26 66 51 134 57 150 6 17 16 44 23 60 7 17 29 73 49 125 40 108 89
235 101 265 5 11 9 22 9 25 1 3 19 50 40 105 21 55 54 141 73 190 18 50 38 98
43 107 6 10 10 23 10 29 0 6 6 25 14 42 19 41 121 309 157 410 33 91 31 143
-6 196 -48 70 -133 95 -210 63z"/>
<path d="M5108 9790 c-20 -4 -47 -14 -61 -23 -18 -11 -977 -969 -1115 -1113
-19 -20 -42 -80 -42 -110 0 -79 1 -81 589 -672 606 -610 595 -601 683 -589
112 15 184 142 138 244 -11 25 -188 210 -499 522 -264 267 -481 487 -481 490
0 2 125 130 278 283 591 595 678 684 696 712 11 18 18 48 18 81 2 115 -91 194
-204 175z"/>
<path d="M6825 9790 c-50 -11 -75 -29 -106 -78 -33 -52 -38 -111 -15 -165 8
-18 231 -250 500 -521 l486 -489 -476 -477 c-261 -262 -486 -492 -499 -512
-19 -28 -23 -46 -22 -94 1 -38 8 -70 19 -86 48 -73 150 -107 220 -74 52 25
1145 1125 1165 1173 18 45 19 99 1 141 -16 38 -1109 1143 -1152 1165 -38 19
-81 25 -121 17z"/>
<path d="M4328 5938 c-2 -33 -5 -66 -12 -118 -3 -25 -9 -67 -12 -95 -4 -27 -8
-57 -9 -65 -2 -8 -6 -42 -9 -75 -4 -33 -9 -76 -11 -95 -2 -19 -7 -60 -10 -90
-3 -30 -8 -64 -10 -75 -4 -18 -9 -59 -21 -174 -2 -19 -5 -48 -8 -65 -3 -17 -8
-58 -11 -91 -4 -33 -9 -73 -11 -90 -11 -69 -13 -83 -19 -140 -3 -33 -8 -76
-10 -95 -3 -19 -7 -55 -10 -80 -4 -46 -12 -110 -21 -165 -6 -38 -16 -141 -18
-180 l-1 -30 177 -1 178 -1 5 31 c3 17 8 47 10 66 2 19 9 78 15 130 6 52 13
109 15 125 13 118 18 155 25 195 5 24 7 47 5 51 -2 3 2 25 9 50 45 147 156
280 241 289 67 8 86 1 102 -37 16 -39 18 -68 8 -157 -6 -52 -32 -273 -40 -336
-2 -19 -7 -60 -10 -90 -3 -30 -8 -73 -11 -95 -3 -22 -7 -56 -9 -75 -2 -19 -7
-60 -10 -91 l-7 -56 181 0 c117 1 181 5 182 12 3 31 19 164 24 195 2 14 6 54
10 90 4 36 9 79 11 95 2 17 7 53 9 80 6 54 23 184 31 237 3 18 7 75 8 126 6
145 -38 266 -118 327 -83 64 -198 80 -314 46 -72 -22 -184 -89 -205 -122 -15
-24 -40 -25 -33 -1 2 9 8 46 11 82 4 36 8 72 10 80 2 8 6 49 10 90 4 41 9 84
11 95 3 11 7 49 10 85 3 36 8 72 11 80 3 8 7 45 9 83 l5 67 -181 0 c-180 0
-180 0 -182 -22z"/>
<path d="M8220 5942 c-57 -28 -78 -46 -104 -93 -37 -63 -36 -149 1 -204 32
-48 46 -60 98 -85 49 -24 87 -25 146 -5 84 29 149 115 149 198 0 31 -9 58 -32
97 -57 94 -171 135 -258 92z"/>
<path d="M5921 5419 c-301 -81 -505 -368 -504 -709 0 -106 14 -170 55 -259 57
-122 181 -216 323 -242 58 -11 178 -8 240 6 93 20 215 89 297 169 48 47 148
188 148 209 0 7 7 26 16 42 13 25 32 92 50 180 9 43 4 225 -6 245 -6 11 -9 24
-6 29 9 14 -78 176 -115 213 -88 88 -188 128 -329 133 -71 3 -113 -1 -169 -16z
m197 -276 c50 -37 67 -88 69 -208 2 -174 -41 -319 -119 -397 -88 -88 -207 -86
-259 5 -22 38 -24 53 -23 167 0 158 7 196 52 300 33 74 92 132 157 151 35 10
97 1 123 -18z"/>
<path d="M7360 5416 c-81 -28 -139 -65 -210 -134 l-55 -54 -5 70 c-6 78 -31
121 -72 123 -13 1 -69 2 -125 3 -121 3 -108 20 -127 -174 -3 -30 -9 -73 -12
-95 -3 -22 -7 -56 -9 -75 -2 -19 -6 -55 -9 -80 -13 -100 -17 -137 -21 -175 -2
-22 -6 -58 -9 -80 -17 -137 -20 -163 -22 -190 -1 -16 -3 -30 -4 -30 -1 0 -3
-11 -4 -25 -3 -23 -7 -56 -23 -190 -12 -106 -32 -95 169 -96 155 -1 178 1 183
15 4 15 7 36 21 181 4 36 8 76 10 90 3 25 6 53 24 215 12 112 13 117 39 186
37 99 117 201 185 236 40 21 100 24 125 7 25 -18 41 -76 36 -124 -4 -31 -10
-85 -19 -160 -2 -14 -6 -56 -10 -93 -4 -37 -9 -77 -11 -87 -2 -10 -6 -45 -10
-77 -3 -32 -8 -76 -11 -98 -2 -22 -6 -56 -9 -75 -5 -48 -15 -127 -21 -172 -3
-21 -1 -39 3 -39 4 -1 86 -3 181 -4 123 -2 172 0 173 9 0 6 3 20 5 31 3 11 7
40 9 65 2 25 6 59 8 75 4 25 13 96 22 190 2 11 5 38 8 60 3 22 8 63 11 90 4
28 9 70 12 95 15 122 17 153 17 255 0 96 -3 117 -25 166 -33 72 -87 132 -146
160 -67 33 -185 35 -272 5z"/>
<path d="M9050 5421 c-192 -55 -318 -156 -413 -331 -33 -61 -71 -165 -85 -235
-3 -16 -6 -82 -6 -145 0 -93 4 -128 22 -181 50 -148 143 -247 283 -300 72 -28
256 -35 349 -14 79 19 197 73 254 117 66 52 116 100 116 112 0 6 -26 40 -58
76 -53 58 -62 64 -96 63 -24 -1 -60 -15 -106 -43 -85 -52 -138 -67 -215 -65
-90 3 -138 30 -170 93 -19 39 -36 130 -25 137 4 3 29 7 56 10 27 2 60 7 74 10
14 3 41 8 60 10 99 12 236 52 319 92 247 122 262 434 26 555 -113 59 -263 74
-385 39z m179 -236 c22 -7 49 -50 45 -72 -1 -7 -2 -22 -3 -34 -2 -35 -57 -76
-139 -103 -99 -32 -198 -50 -206 -37 -2 3 10 38 28 77 63 136 171 202 275 169z"/>
<path d="M2407 5422 c-9 -2 -15 -8 -12 -13 5 -7 19 -86 39 -220 3 -20 8 -42
10 -50 3 -8 7 -37 10 -65 3 -28 8 -57 10 -65 3 -8 7 -33 10 -56 3 -22 7 -52
10 -65 3 -12 7 -36 10 -53 2 -16 10 -61 16 -100 7 -38 13 -85 14 -102 1 -18 3
-33 6 -33 3 0 6 -8 6 -17 2 -33 19 -140 28 -171 2 -9 7 -42 11 -72 3 -30 9
-71 13 -90 l8 -35 139 -1 c77 0 150 3 162 7 19 7 53 55 59 84 1 6 30 82 64
170 34 88 73 187 85 220 13 33 41 107 63 165 23 59 43 98 46 90 5 -14 13 -71
36 -240 10 -73 19 -133 26 -170 2 -14 7 -43 10 -65 2 -22 9 -69 15 -105 5 -36
11 -74 13 -85 7 -46 18 -65 39 -67 56 -4 274 -5 288 -2 8 2 21 21 28 42 8 20
22 55 31 77 10 22 37 87 60 145 23 58 48 119 56 137 8 17 14 34 14 37 0 3 11
30 25 60 14 30 25 58 25 61 0 4 7 21 15 38 8 18 39 95 70 172 31 77 62 154 70
170 17 39 105 262 105 268 0 2 -67 3 -150 3 l-150 -2 -30 -29 c-16 -16 -30
-33 -30 -39 0 -9 -79 -266 -114 -371 -8 -22 -38 -115 -67 -208 -29 -92 -56
-162 -60 -155 -3 7 -9 46 -13 86 -3 41 -8 77 -10 80 -2 4 -7 32 -10 62 -3 30
-10 91 -16 135 -6 44 -13 98 -15 120 -3 22 -7 51 -10 65 -2 14 -7 53 -10 88
-16 161 -26 170 -190 167 -55 -2 -103 -3 -106 -4 -18 -3 -59 -57 -69 -89 -11
-35 -62 -172 -80 -217 -5 -11 -19 -49 -33 -85 -69 -188 -152 -396 -161 -407
-8 -9 -11 -2 -11 25 -1 31 -7 145 -19 327 -2 22 -6 99 -10 170 -12 211 -14
227 -42 255 -24 24 -28 25 -167 25 -78 1 -150 -1 -160 -3z"/>
<path d="M8089 5423 c-1 -2 -3 -7 -4 -13 -1 -5 -3 -11 -4 -12 -1 -2 -4 -25 -6
-53 -2 -27 -6 -63 -9 -80 -3 -16 -8 -55 -11 -85 -7 -64 -14 -125 -19 -160 -2
-14 -7 -56 -10 -95 -4 -38 -8 -77 -11 -85 -2 -8 -6 -37 -9 -65 -12 -108 -19
-171 -22 -195 -2 -14 -5 -45 -8 -70 -6 -56 -14 -121 -23 -180 -3 -25 -6 -61
-7 -80 l-1 -35 173 -1 c95 0 175 3 177 7 5 7 8 28 20 134 3 28 8 68 10 90 3
22 7 56 9 75 2 19 7 55 10 80 7 55 15 120 21 180 3 25 7 63 10 85 6 47 12 91
20 160 4 28 8 61 10 75 2 14 6 54 10 90 3 36 9 83 12 105 3 22 6 60 7 85 l1
45 -172 0 c-95 0 -174 -1 -174 -2z"/>
<path d="M5349 3324 c-223 -42 -401 -219 -435 -433 -3 -18 -8 -43 -10 -55 -6
-26 -5 -190 1 -208 2 -7 7 -30 10 -51 18 -128 123 -277 242 -343 174 -98 401
-96 549 3 53 37 88 65 97 80 7 11 -134 193 -149 193 -3 0 -20 -12 -38 -27
-101 -85 -247 -84 -328 3 -86 92 -107 317 -43 447 33 65 55 89 109 116 77 40
154 33 240 -22 l49 -31 19 25 c11 13 39 46 62 73 22 26 48 59 56 72 14 22 13
25 -20 54 -105 91 -266 131 -411 104z"/>
<path d="M6273 3325 c-104 -19 -179 -55 -249 -118 -72 -66 -114 -133 -146
-233 -29 -92 -32 -324 -5 -423 41 -152 127 -266 248 -331 158 -84 406 -75 543
20 45 31 114 96 134 126 64 97 101 236 102 381 1 104 -4 146 -30 233 -74 252
-321 395 -597 345z m209 -280 c75 -49 111 -147 111 -300 0 -186 -72 -310 -187
-323 -22 -2 -43 -6 -44 -7 -7 -6 -97 37 -112 53 -46 50 -71 103 -85 177 -8 43
-7 177 1 222 16 92 78 176 146 199 49 16 127 7 170 -21z"/>
<path d="M4003 3312 l-23 -3 0 -565 0 -564 373 0 373 0 0 125 0 125 -222 0
-223 0 -3 33 c-2 17 0 47 3 65 4 17 4 32 0 32 -4 0 -5 16 -3 35 5 40 -19 36
225 36 l148 0 -3 127 -3 127 -177 0 c-97 1 -179 3 -181 5 -8 8 -15 79 -9 85 4
3 5 24 3 45 l-3 40 49 1 c26 0 123 0 215 1 l167 0 3 87 c2 47 1 104 -2 126
l-5 40 -340 0 c-187 0 -350 -1 -362 -3z"/>
<path d="M7135 3310 l-30 -5 0 -560 0 -560 144 -3 143 -3 -5 273 c-3 150 -8
287 -11 303 -4 17 -8 50 -11 75 -2 25 -4 45 -5 45 -1 0 -3 12 -5 28 -7 53 11
25 63 -101 30 -70 109 -237 176 -372 l122 -245 151 -3 c137 -2 151 -1 155 15
7 32 3 1102 -5 1109 -11 11 -269 7 -276 -5 -14 -21 -3 -440 15 -566 3 -22 7
-59 9 -82 2 -23 6 -51 10 -63 12 -38 -12 -20 -30 23 -10 23 -26 61 -36 84 -11
24 -19 45 -19 48 0 4 -269 554 -276 563 -4 6 -246 7 -279 2z"/>
</g>
</svg>
